<svg id="Capa_1" data-name="Capa 1" xmlns="http://www.w3.org/2000/svg" viewBox="0 0 14.05 9.6"><defs><style>.cls-1{fill:#fff;}</style></defs><path id="Trazado_53" data-name="Trazado 53" class="cls-1" d="M14.52,11.51v.1a.68.68,0,0,1-.11.42.56.56,0,0,1-.48.27H1.07A.56.56,0,0,1,.59,12a.68.68,0,0,1-.11-.42v-.1H6.27v.08a.19.19,0,0,0,.16.16H8.57c.07,0,.14-.09.15-.16v-.08Zm-1.61-8H9.16l0,0v.37c0,.09,0,.09.13.16l.12.1.08,0h3.28c.14,0,.18,0,.19,0a.71.71,0,0,1,0,.2v6a.71.71,0,0,1,0,.2s-.05,0-.19,0H2.27c-.14,0-.18,0-.19,0a.46.46,0,0,1,0-.2v-6a.69.69,0,0,1,0-.2s0,0,.19,0H5.55l.08,0,.13-.1c.1-.07.11-.07.12-.16V3.53l0,0H2.09a.67.67,0,0,0-.66.67v6.42a.66.66,0,0,0,.66.66H12.91a.65.65,0,0,0,.66-.66V4.17a.66.66,0,0,0-.66-.67Zm-2.2,6.1s.07-.28-.32-.69c-.16-.17-1.4-.53-1.58-.68s-.25-.13-.29-.37V7.47A2.85,2.85,0,0,0,9,6.9a1.29,1.29,0,0,0,.17-.5c.37-.16.41-.7.43-1,0-.11,0-.14-.09-.14a1.62,1.62,0,0,0,.06-.69c0-.12,0-.36-.05-.46a5.93,5.93,0,0,0-.29-.56c-.07-.07-.45-.17-.51-.36s-.36-.08-.43-.11-.06-.15-.15-.19S7.67,3,7.65,3s-.15-.09,0-.27c0,0-.38-.17-.74.33a.26.26,0,0,1,0-.27s-.17,0-.43.47a.42.42,0,0,0-.16-.09l-.21.45A.09.09,0,0,0,6,3.57a.08.08,0,0,0,0,.05,2.22,2.22,0,0,0-.27.94,5.07,5.07,0,0,0,.11.68c-.07,0-.13,0-.12.15,0,.3.06.85.42,1,0-.09.12.38.17.49a3.24,3.24,0,0,0,.47.57v.4c0,.23-.14.25-.28.37S5,8.74,4.83,8.91c-.38.4-.32.69-.32.69Z" transform="translate(-0.47 -2.7)"/></svg>