<svg width="28" height="28" xmlns="http://www.w3.org/2000/svg" xml:space="preserve" version="1.1">

 <g>
  <title>Layer 1</title>
  <path stroke="null" id="svg_1" fill="#FFFFFF" d="m11.2648,0.23705c-0.06006,0.01903 -0.28027,0.05709 -0.46044,0.09516c-0.18017,0.03806 -0.5205,0.22837 -0.74071,0.39965c-0.36035,0.28547 -0.54052,0.34256 -1.18114,0.34256c-0.88085,0 -1.62156,0.32353 -2.12205,0.87543c-0.22021,0.26643 -0.44042,0.38062 -0.70068,0.38062c-0.5205,0 -1.2412,0.64705 -1.7617,1.57957c-0.22021,0.41868 -0.66064,1.00864 -0.96093,1.33217c-0.68066,0.72318 -1.041,1.61764 -1.20116,3.0069c-0.1001,0.74221 -0.26025,1.25605 -0.50048,1.73182c-0.56054,1.02767 -0.6206,1.57957 -0.58056,4.1107c0.04004,2.03632 0.08008,2.37888 0.32031,2.83562c0.18017,0.36159 0.26025,0.81833 0.30029,1.56054c0.04004,0.95155 0.08008,1.08477 0.44042,1.57957c0.22021,0.3045 0.40039,0.68512 0.40039,0.83736c0,0.68512 0.60058,1.6557 1.1411,1.80795c0.12012,0.03806 0.32031,0.3045 0.42041,0.60899c0.42041,1.04671 1.18114,1.5986 2.1821,1.5986c0.30029,0 0.56054,0.07612 0.66064,0.19031c0.24023,0.26643 0.82079,0.53287 1.18114,0.53287c0.28027,0 0.38037,0.09516 0.6206,0.64705c0.16015,0.34256 0.46044,0.78027 0.68066,0.95155c0.50048,0.39965 1.52147,0.60899 2.16208,0.45674c0.56054,-0.13322 1.48143,-0.93252 1.82176,-1.56054c0.34033,-0.60899 0.40039,-2.49306 0.12012,-3.38752c-0.20019,-0.62802 -0.20019,-0.74221 0,-1.6557c0.18017,-0.83736 0.20019,-1.16089 0.06006,-2.24566c-0.12012,-1.08477 -0.12012,-1.33217 0.06006,-1.78891c0.28027,-0.78027 0.20019,-2.60725 -0.18017,-3.38752l-0.28027,-0.57093l0.26025,-0.47578c0.34033,-0.62802 0.46044,-1.92213 0.20019,-2.49306c-0.08008,-0.38062 -0.1001,-0.51384 0.04004,-0.81833c0.22021,-0.49481 0.22021,-1.80795 -0.02002,-2.55015c-0.18017,-0.57093 -0.18017,-0.70415 0,-1.37023c0.22021,-0.8564 0.26025,-2.77853 0.06006,-3.48267c-0.18017,-0.64705 -0.68066,-1.25605 -1.16112,-1.44636c-0.46044,-0.17128 -1.10106,-0.28547 -1.28124,-0.22837l0,0zm1.22118,1.3512l0.42041,0.34256l0.04004,1.40829c0.02002,1.00864 -0.02002,1.57957 -0.14014,1.9031c-0.18017,0.49481 -0.18017,0.49481 -0.96093,0.5519c-0.88085,0.05709 -1.20116,0.3045 -1.34129,1.00864c-0.18017,0.8564 0.64062,1.71279 1.16112,1.21798c0.24023,-0.22837 0.12012,-0.43771 -0.22021,-0.43771c-0.22021,0 -0.24023,-0.07612 -0.22021,-0.43771c0.04004,-0.36159 0.1001,-0.45674 0.38037,-0.53287c0.50048,-0.13322 1.02098,0.03806 1.20116,0.38062c0.18017,0.34256 0.20019,1.52248 0.04004,1.96019c-0.1001,0.2474 -0.18017,0.28547 -0.36035,0.20934c-0.12012,-0.07612 -0.68066,-0.13322 -1.2412,-0.17128c-0.80077,-0.03806 -1.10106,-0.11419 -1.42137,-0.32353c-0.38037,-0.2474 -0.40039,-0.3045 -0.40039,-1.04671c0,-1.27508 0.60058,-2.07438 1.72166,-2.26469c0.48046,-0.09516 0.60058,-0.22837 0.40039,-0.47578c-0.30029,-0.36159 -1.42137,-0.09516 -2.04197,0.49481l-0.42041,0.39965l-0.50048,-0.26643c-0.40039,-0.20934 -0.56054,-0.22837 -0.74071,-0.13322c-0.38037,0.22837 -0.28027,0.58996 0.18017,0.62802c0.60058,0.05709 0.74071,0.3045 0.74071,1.27508c0,1.40829 -0.22021,1.78891 -1.30125,2.24566l-0.54052,0.22837l-0.38037,-0.3045c-0.20019,-0.17128 -0.56054,-0.36159 -0.80077,-0.43771c-0.42041,-0.13322 -0.42041,-0.15225 -0.32031,-0.57093c0.14014,-0.53287 0.48046,-0.98961 0.92089,-1.19895c0.30029,-0.13322 0.40039,-0.13322 0.90087,0.09516c0.58056,0.26643 0.82079,0.2474 0.82079,-0.09516c0,-0.2474 -0.94091,-0.74221 -1.42137,-0.74221c-0.32031,0 -0.34033,-0.03806 -0.34033,-0.53287c0,-1.14186 0.66064,-1.96019 1.68162,-2.09341c0.40039,-0.05709 0.5205,-0.11419 0.54052,-0.32353c0.04004,-0.32353 -0.38037,-0.43771 -0.98095,-0.28547c-0.76073,0.22837 -0.82079,0.11419 -0.22021,-0.53287c0.48046,-0.51384 0.96093,-0.78027 1.48143,-0.78027c0.54052,0 1.52147,0.49481 1.86179,0.93252c0.34033,0.45674 0.72069,0.41868 0.6206,-0.03806c-0.06006,-0.34256 0.28027,-0.39965 0.60058,-0.09516c0.24023,0.22837 0.58056,0.13322 0.58056,-0.13322c0,-0.09516 -0.14014,-0.32353 -0.32031,-0.49481c-0.30029,-0.26643 -0.40039,-0.3045 -0.88085,-0.22837c-0.70068,0.07612 -0.98095,-0.15225 -0.54052,-0.45674c0.48046,-0.32353 1.28124,-0.2474 1.7617,0.15225l0,0zm-6.18596,1.99826c0.1001,0.2474 0.08008,0.36159 -0.06006,0.51384c-0.34033,0.36159 -0.60058,1.12283 -0.64062,1.92213c-0.02002,0.62802 -0.1001,0.91349 -0.34033,1.27508c-0.18017,0.2474 -0.40039,0.74221 -0.48046,1.08477c-0.1001,0.47578 -0.26025,0.74221 -0.64062,1.1038l-0.5205,0.49481l-0.30029,-0.26643c-0.24023,-0.20934 -0.28027,-0.38062 -0.28027,-0.97058c0,-0.8564 0.30029,-1.92213 0.64062,-2.34081l0.24023,-0.32353l-0.1001,0.5519c-0.16015,0.93252 -0.12012,1.14186 0.14014,1.14186c0.20019,0 0.30029,-0.15225 0.46044,-0.78027c0.14014,-0.43771 0.24023,-1.02767 0.24023,-1.33217c0.02002,-0.64705 0.34033,-1.3512 0.88085,-1.94116c0.48046,-0.53287 0.60058,-0.5519 0.76073,-0.13322l0,0zm3.64351,5.91864c0.16015,0.07612 0.74071,0.19031 1.28124,0.2474c1.36131,0.11419 1.74168,0.41868 1.74168,1.37023c0,0.91349 -0.58056,1.73182 -1.50145,2.11244c-0.70068,0.26643 -1.041,0.22837 -2.12205,-0.28547c-0.68066,-0.32353 -0.82079,-0.36159 -1.10106,-0.2474c-0.48046,0.20934 -0.36035,0.53287 0.22021,0.62802c0.26025,0.03806 0.68066,0.20934 0.94091,0.39965c0.26025,0.17128 0.58056,0.32353 0.70068,0.32353c0.18017,0 0.22021,0.11419 0.22021,0.64705c0,0.87543 -0.20019,1.42733 -0.48046,1.29411c-0.58056,-0.3045 -1.10106,-0.28547 -1.62156,0.03806c-0.76073,0.45674 -1.26122,1.46539 -0.76073,1.46539c0.08008,0 0.36035,-0.20934 0.6206,-0.47578c0.34033,-0.34256 0.58056,-0.47578 0.84081,-0.47578c0.46044,0 0.98095,0.39965 1.08104,0.83736c0.1001,0.43771 -0.12012,1.25605 -0.50048,1.82698c-0.50048,0.72318 -0.50048,0.97058 -0.06006,1.46539c0.24023,0.2474 0.36035,0.51384 0.32031,0.60899c-0.12012,0.3045 -0.68066,0.43771 -1.22118,0.28547c-0.54052,-0.13322 -0.88085,-0.5519 -1.10106,-1.29411c-0.12012,-0.38062 -0.08008,-0.45674 0.32031,-0.87543c0.38037,-0.41868 0.42041,-0.49481 0.26025,-0.64705c-0.16015,-0.15225 -0.24023,-0.13322 -0.60058,0.19031c-0.78075,0.70415 -1.52147,0.38062 -1.50145,-0.64705c0.02002,-0.98961 0.24023,-1.42733 0.76073,-1.52248c0.46044,-0.09516 1.26122,-0.7993 1.26122,-1.12283c0,-0.28547 -0.42041,-0.20934 -0.76073,0.11419c-0.36035,0.36159 -0.6206,0.38062 -1.44139,0.05709c-0.82079,-0.32353 -1.1411,-0.20934 -1.84178,0.62802c-0.64062,0.78027 -0.82079,0.87543 -1.18114,0.70415c-0.36035,-0.19031 -0.82079,-0.95155 -0.82079,-1.37023c0,-0.36159 0.08008,-0.38062 0.44042,-0.13322c0.14014,0.09516 0.44042,0.17128 0.70068,0.17128c1.041,0 1.98191,-1.21798 2.06199,-2.64531c0.04004,-0.76124 -0.30029,-0.70415 -0.56054,0.09516c-0.34033,0.98961 -0.60058,1.42733 -1.00096,1.63667c-0.50048,0.28547 -0.70068,0.26643 -1.16112,-0.15225l-0.42041,-0.34256l0,-1.46539c0,-1.29411 0.04004,-1.56054 0.30029,-2.09341c0.16015,-0.34256 0.34033,-0.62802 0.38037,-0.62802c0.04004,0 0.24023,0.13322 0.44042,0.28547c0.38037,0.3045 0.40039,0.34256 0.12012,1.88407c-0.06006,0.38062 -0.04004,0.43771 0.18017,0.43771c0.30029,0 0.60058,-0.64705 0.72069,-1.57957c0.20019,-1.46539 1.12108,-1.94116 2.1821,-1.1038c0.50048,0.39965 0.68066,0.97058 0.6206,2.01729c-0.04004,0.78027 -0.08008,0.91349 -0.44042,1.31314c-0.42041,0.45674 -0.5205,0.72318 -0.28027,0.8564c0.36035,0.20934 1.2412,-1.04671 1.40135,-2.01729c0.1001,-0.57093 0.5205,-1.02767 0.96093,-1.02767c0.18017,0 0.68066,0.11419 1.12108,0.2474c1.2412,0.36159 1.98191,0.28547 1.88181,-0.19031c-0.04004,-0.17128 -0.14014,-0.20934 -0.40039,-0.19031c-0.18017,0 -0.86083,-0.15225 -1.48143,-0.36159c-1.1411,-0.38062 -1.18114,-0.38062 -2.02195,-0.05709c-0.14014,0.05709 -0.22021,0.03806 -0.22021,-0.07612c0,-0.09516 0.26025,-0.28547 0.58056,-0.45674c0.32031,-0.15225 0.72069,-0.49481 0.92089,-0.74221c0.28027,-0.38062 0.36035,-0.41868 0.5205,-0.28547c0.1001,0.09516 0.32031,0.22837 0.50048,0.32353l0,0zm2.72262,4.54841c0.26025,0.45674 0.36035,1.63667 0.24023,2.43597c-0.08008,0.45674 -0.20019,0.66609 -0.60058,1.02767c-0.60058,0.53287 -0.60058,0.87543 -0.02002,0.83736l0.38037,-0.01903l0.1001,0.87543c0.08008,0.93252 -0.06006,1.9031 -0.36035,2.47403c-0.24023,0.41868 -0.98095,0.91349 -1.54149,1.02767c-0.44042,0.07612 -1.46141,1.02767 -1.38133,1.27508c0.1001,0.28547 0.56054,0.22837 0.82079,-0.09516c0.30029,-0.36159 0.48046,-0.3045 0.6206,0.20934c0.08008,0.26643 0.18017,0.38062 0.34033,0.38062c0.20019,0 0.24023,-0.07612 0.22021,-0.5519c-0.02002,-0.53287 0,-0.5519 0.5205,-0.8564l0.54052,-0.32353l0.12012,0.43771c0.20019,0.64705 0.16015,1.86504 -0.06006,2.39791c-0.30029,0.72318 -1.50145,1.25605 -2.24216,0.98961c-0.48046,-0.17128 -0.86083,-0.62802 -1.30125,-1.5986c-0.44042,-0.93252 -0.80077,-1.14186 -0.92089,-0.5519c-0.06006,0.26643 -0.1001,0.3045 -0.34033,0.20934c-0.40039,-0.13322 -0.46044,-0.32353 -0.24023,-0.60899c0.26025,-0.34256 0.26025,-1.04671 0.02002,-1.04671c-0.1001,0 -0.30029,0.17128 -0.44042,0.36159c-0.88085,1.16089 -2.08201,0.74221 -2.44235,-0.87543c-0.06006,-0.22837 -0.20019,-0.38062 -0.50048,-0.49481c-0.42041,-0.17128 -0.84081,-0.58996 -0.84081,-0.87543c0,-0.07612 0.14014,-0.19031 0.30029,-0.22837c0.60058,-0.15225 0.48046,-0.76124 -0.14014,-0.76124c-0.40039,0 -0.88085,-0.51384 -1.06102,-1.1038c-0.18017,-0.66609 -0.06006,-0.93252 0.40039,-0.93252c0.40039,0 1.08104,-0.57093 1.68162,-1.37023c0.20019,-0.28547 0.32031,-0.34256 0.58056,-0.26643l0.38037,0.11419l-0.16015,0.62802c-0.44042,1.5986 0.04004,2.83562 1.10106,2.83562c0.30029,0 0.34033,0.05709 0.42041,0.51384c0.20019,1.16089 1.00096,1.88407 2.08201,1.88407c0.6206,0 0.96093,-0.15225 1.34129,-0.58996c0.42041,-0.45674 0.38037,-0.98961 -0.12012,-1.44636c-0.40039,-0.38062 -0.40039,-0.38062 -0.18017,-0.70415c0.70068,-1.00864 0.92089,-2.11244 0.60058,-2.85465c-0.14014,-0.3045 -0.12012,-0.41868 0.12012,-0.83736c0.14014,-0.26643 0.30029,-0.78027 0.34033,-1.14186c0.06006,-0.62802 0.08008,-0.64705 0.56054,-0.78027c0.26025,-0.07612 0.5205,-0.19031 0.56054,-0.2474c0.12012,-0.22837 0.28027,-0.13322 0.50048,0.2474l0,0zm3.24313,-13.75942c-0.82079,0.19031 -1.46141,0.76124 -1.70164,1.54151c-0.20019,0.68512 -0.16015,2.98787 0.06006,3.71105c0.18017,0.57093 0.18017,0.66609 -0.02002,1.14186c-0.16015,0.41868 -0.20019,0.74221 -0.14014,1.63667c0.08008,0.60899 0.1001,1.27508 0.1001,1.46539c-0.08008,1.46539 -0.02002,2.41694 0.20019,2.83562c0.22021,0.41868 0.22021,0.47578 0.02002,0.95155c-0.44042,1.16089 -0.48046,3.08302 -0.08008,3.8062c0.08008,0.15225 0.08008,0.47578 0,0.97058c-0.18017,1.06574 -0.16015,2.07438 0.06006,2.89271c0.18017,0.62802 0.16015,0.76124 -0.02002,1.37023c-0.26025,0.8564 -0.28027,2.28372 -0.06006,3.06399c0.24023,0.78027 1.2412,1.78891 1.98191,1.97922c1.12108,0.28547 2.1821,-0.20934 2.74264,-1.25605c0.34033,-0.62802 0.44042,-0.72318 0.82079,-0.78027c0.50048,-0.07612 0.88085,-0.26643 1.12108,-0.53287c0.1001,-0.11419 0.36035,-0.19031 0.66064,-0.19031c0.98095,0 1.74168,-0.57093 2.12205,-1.57957c0.1001,-0.28547 0.32031,-0.53287 0.58056,-0.68512c0.5205,-0.28547 0.86083,-0.83736 0.98095,-1.52248c0.04004,-0.28547 0.26025,-0.7993 0.48046,-1.14186c0.36035,-0.5519 0.40039,-0.70415 0.42041,-1.57957c0.02002,-0.74221 0.08008,-1.08477 0.30029,-1.50345c0.26025,-0.47578 0.28027,-0.74221 0.34033,-2.66434c0.06006,-2.49306 -0.04004,-3.19721 -0.64062,-4.33907c-0.36035,-0.62802 -0.46044,-0.95155 -0.46044,-1.46539c0,-1.21798 -0.56054,-2.60725 -1.30125,-3.29236c-0.22021,-0.19031 -0.56054,-0.68512 -0.76073,-1.06574c-0.50048,-0.98961 -1.32127,-1.73182 -1.88181,-1.73182c-0.32031,0 -0.48046,-0.07612 -0.64062,-0.28547c-0.12012,-0.15225 -0.46044,-0.43771 -0.80077,-0.62802c-0.46044,-0.26643 -0.76073,-0.32353 -1.36131,-0.34256c-0.64062,0 -0.82079,-0.05709 -1.18114,-0.32353c-0.50048,-0.43771 -1.28124,-0.60899 -1.94187,-0.45674l0,0zm1.22118,1.14186c0.30029,0.15225 0.36035,0.22837 0.24023,0.36159c-0.12012,0.11419 -0.32031,0.13322 -0.68066,0.09516c-0.64062,-0.07612 -1.22118,0.26643 -1.22118,0.74221c0,0.32353 0.20019,0.36159 0.56054,0.11419c0.36035,-0.26643 0.58056,-0.22837 0.58056,0.09516c0,0.47578 0.26025,0.49481 0.68066,0.03806c1.16112,-1.27508 2.8027,-1.17992 3.56343,0.19031l0.18017,0.34256l-0.42041,-0.09516c-0.56054,-0.13322 -1.10106,-0.11419 -1.26122,0.05709c-0.22021,0.20934 0.12012,0.49481 0.56054,0.49481c0.90087,0 1.58152,0.78027 1.70164,1.92213l0.06006,0.72318l-0.40039,0c-0.58056,0 -1.40135,0.41868 -1.40135,0.72318c0,0.36159 0.28027,0.39965 0.80077,0.09516c0.44042,-0.2474 0.48046,-0.2474 0.90087,-0.07612c0.54052,0.2474 0.84081,0.68512 0.86083,1.25605c0.02002,0.34256 -0.04004,0.45674 -0.24023,0.49481c-0.14014,0.01903 -0.50048,0.20934 -0.80077,0.39965l-0.56054,0.36159l-0.56054,-0.28547c-0.86083,-0.41868 -1.06102,-0.76124 -1.1411,-1.88407c-0.08008,-1.16089 0.12012,-1.56054 0.74071,-1.56054c0.32031,0 0.38037,-0.05709 0.38037,-0.28547c0,-0.47578 -0.6206,-0.53287 -1.16112,-0.09516c-0.20019,0.17128 -0.26025,0.13322 -0.68066,-0.26643c-0.60058,-0.57093 -1.58152,-0.83736 -2.04197,-0.57093c-0.28027,0.17128 -0.06006,0.47578 0.40039,0.5519c1.10106,0.19031 1.60154,0.83736 1.64158,2.09341c0.04004,0.8564 -0.04004,1.04671 -0.54052,1.31314c-0.44042,0.22837 -2.68259,0.38062 -2.8027,0.19031c-0.04004,-0.07612 -0.1001,-0.51384 -0.1001,-0.98961c0,-1.08477 0.22021,-1.38926 1.00096,-1.38926c0.58056,0 0.76073,0.15225 0.76073,0.64705c0,0.2474 -0.06006,0.32353 -0.28027,0.36159c-0.38037,0.05709 -0.44042,0.41868 -0.08008,0.51384c0.18017,0.05709 0.38037,0 0.60058,-0.15225c0.28027,-0.19031 0.34033,-0.34256 0.36035,-0.91349c0.04004,-0.58996 0,-0.70415 -0.28027,-0.97058c-0.26025,-0.2474 -0.42041,-0.28547 -1.00096,-0.28547c-0.70068,0 -0.70068,0 -0.90087,-0.45674c-0.14014,-0.3045 -0.20019,-0.83736 -0.22021,-1.76988c-0.02002,-1.40829 0.16015,-1.92213 0.72069,-2.18857c0.40039,-0.17128 1.06102,-0.15225 1.48143,0.05709l0,0zm5.185,2.2076c0.56054,0.62802 0.74071,1.06574 0.96093,2.41694c0.26025,1.40829 0.38037,1.75085 0.70068,1.75085c0.18017,0 0.20019,-0.11419 0.12012,-0.83736c-0.04004,-0.45674 -0.06006,-0.83736 -0.02002,-0.83736c0.04004,0 0.16015,0.20934 0.30029,0.45674c0.30029,0.57093 0.5205,1.54151 0.5205,2.30275c0,0.47578 -0.06006,0.62802 -0.32031,0.81833l-0.32031,0.2474l-0.56054,-0.53287c-0.40039,-0.38062 -0.56054,-0.62802 -0.56054,-0.8564c0,-0.36159 -0.58056,-1.57957 -0.76073,-1.57957c-0.06006,0 -0.12012,-0.39965 -0.12012,-0.87543c0,-0.72318 -0.06006,-0.98961 -0.36035,-1.56054c-0.56054,-1.08477 -0.28027,-1.69376 0.42041,-0.91349l0,0zm-3.38326,5.7664c0.14014,0.20934 0.54052,0.5519 0.90087,0.74221c0.36035,0.19031 0.66064,0.41868 0.66064,0.51384c0,0.19031 -0.12012,0.19031 -0.6206,-0.03806c-0.40039,-0.19031 -0.46044,-0.19031 -1.62156,0.19031c-0.66064,0.19031 -1.34129,0.34256 -1.52147,0.32353c-0.22021,-0.01903 -0.32031,0.01903 -0.36035,0.19031c-0.1001,0.47578 0.64062,0.57093 1.88181,0.19031c0.44042,-0.13322 0.94091,-0.2474 1.1411,-0.2474c0.46044,0 0.78075,0.43771 0.96093,1.27508c0.22021,1.08477 1.02098,1.99826 1.40135,1.61764c0.06006,-0.05709 -0.04004,-0.3045 -0.26025,-0.58996c-0.94091,-1.21798 -0.74071,-2.96884 0.40039,-3.63492c0.6206,-0.36159 1.02098,-0.3045 1.46141,0.20934c0.28027,0.32353 0.38037,0.57093 0.40039,0.93252c0,0.66609 0.38037,1.67473 0.64062,1.71279c0.28027,0.05709 0.40039,-0.34256 0.24023,-0.74221c-0.08008,-0.17128 -0.12012,-0.5519 -0.12012,-0.83736c0,-0.41868 0.06006,-0.5519 0.38037,-0.76124c0.20019,-0.15225 0.40039,-0.26643 0.44042,-0.26643c0.04004,0 0.18017,0.3045 0.34033,0.68512c0.38037,0.93252 0.42041,3.14012 0.08008,3.65395c-0.48046,0.68512 -1.2412,0.70415 -1.7617,0.05709c-0.14014,-0.17128 -0.38037,-0.68512 -0.5205,-1.14186c-0.34033,-1.02767 -0.64062,-1.1038 -0.60058,-0.17128c0.02002,0.43771 0.12012,0.83736 0.38037,1.31314c0.58056,1.08477 1.44139,1.46539 2.32224,1.02767c0.22021,-0.09516 0.42041,-0.15225 0.46044,-0.11419c0.14014,0.13322 -0.26025,1.14186 -0.60058,1.44636c-0.46044,0.41868 -0.72069,0.34256 -1.38133,-0.49481c-0.28027,-0.36159 -0.66064,-0.70415 -0.84081,-0.78027c-0.34033,-0.13322 -0.86083,-0.03806 -1.2412,0.20934c-0.38037,0.2474 -0.92089,0.19031 -1.28124,-0.13322c-0.36035,-0.34256 -0.68066,-0.38062 -0.68066,-0.07612c0,0.3045 0.72069,0.97058 1.12108,1.04671c0.18017,0.03806 0.40039,0.09516 0.46044,0.11419c0.16015,0.05709 0.42041,0.97058 0.42041,1.52248c0,0.93252 -0.78075,1.21798 -1.56151,0.57093c-0.36035,-0.3045 -0.46044,-0.32353 -0.58056,-0.19031c-0.12012,0.13322 -0.06006,0.26643 0.28027,0.62802c0.42041,0.45674 0.44042,0.45674 0.26025,0.98961c-0.24023,0.74221 -0.76073,1.19895 -1.40135,1.21798c-0.34033,0.01903 -0.60058,-0.05709 -0.78075,-0.20934l-0.26025,-0.22837l0.36035,-0.36159c0.56054,-0.57093 0.58056,-0.72318 0.08008,-1.56054c-0.24023,-0.41868 -0.46044,-0.97058 -0.50048,-1.31314c-0.06006,-0.51384 -0.04004,-0.62802 0.26025,-0.97058c0.50048,-0.5519 1.00096,-0.53287 1.64158,0.09516c0.56054,0.5519 0.82079,0.60899 0.82079,0.19031c0,-0.38062 -0.92089,-1.3512 -1.36131,-1.44636c-0.20019,-0.03806 -0.58056,0 -0.88085,0.09516l-0.5205,0.17128l-0.12012,-0.38062c-0.16015,-0.51384 -0.26025,-1.33217 -0.16015,-1.46539c0.18017,-0.20934 1.6616,-0.87543 1.98191,-0.87543c0.26025,0 0.32031,-0.05709 0.30029,-0.2474c-0.1001,-0.51384 -0.42041,-0.5519 -1.28124,-0.13322c-0.80077,0.38062 -1.10106,0.43771 -1.82176,0.39965c-0.50048,-0.01903 -1.38133,-0.72318 -1.62156,-1.29411c-0.20019,-0.45674 -0.22021,-1.38926 -0.04004,-1.73182c0.18017,-0.34256 0.88085,-0.57093 1.62156,-0.57093c0.70068,0 1.34129,-0.20934 1.62156,-0.51384c0.24023,-0.26643 0.30029,-0.2474 0.58056,0.19031l0,0zm-2.70261,4.58647c0.18017,0.07612 0.38037,0.15225 0.46044,0.15225c0.08008,0 0.16015,0.3045 0.20019,0.72318c0.04004,0.39965 0.18017,0.89446 0.32031,1.14186c0.24023,0.39965 0.24023,0.43771 0.06006,0.8564c-0.32031,0.74221 -0.04004,1.88407 0.74071,2.93078c0.12012,0.17128 0.1001,0.2474 -0.18017,0.45674c-1.041,0.78027 -0.30029,2.1505 1.16112,2.1505c1.00096,0 1.86179,-0.81833 2.06199,-1.94116c0.06006,-0.32353 0.14014,-0.45674 0.32031,-0.45674c0.44042,0 0.90087,-0.28547 1.1411,-0.74221c0.28027,-0.53287 0.30029,-1.12283 0.06006,-2.01729c-0.14014,-0.49481 -0.14014,-0.66609 -0.04004,-0.74221c0.34033,-0.20934 0.5205,-0.09516 1.10106,0.66609c0.46044,0.62802 0.92089,0.91349 1.44139,0.91349c0.34033,0 0.34033,0.01903 0.28027,0.66609c-0.06006,0.78027 -0.5205,1.33217 -1.16112,1.38926c-0.30029,0.01903 -0.40039,0.09516 -0.44042,0.3045c-0.04004,0.20934 0.04004,0.3045 0.34033,0.39965c0.32031,0.11419 0.38037,0.17128 0.30029,0.38062c-0.12012,0.39965 -0.42041,0.64705 -0.82079,0.74221c-0.26025,0.05709 -0.38037,0.17128 -0.44042,0.39965c-0.28027,1.16089 -0.66064,1.61764 -1.40135,1.61764c-0.38037,0 -0.54052,-0.09516 -0.94091,-0.51384c-0.30029,-0.32353 -0.54052,-0.49481 -0.68066,-0.43771c-0.26025,0.09516 -0.24023,0.28547 0.06006,0.8564c0.14014,0.26643 0.26025,0.47578 0.26025,0.49481c0,0.01903 -0.16015,0.11419 -0.38037,0.20934c-0.36035,0.17128 -0.38037,0.17128 -0.38037,-0.03806c0,-0.22837 -0.22021,-0.51384 -0.40039,-0.51384c-0.06006,0 -0.32031,0.43771 -0.58056,0.98961c-0.6206,1.25605 -0.98095,1.57957 -1.72166,1.57957c-0.60058,-0.01903 -1.62156,-0.49481 -1.7617,-0.8564c-0.24023,-0.57093 -0.30029,-1.37023 -0.18017,-2.07438c0.06006,-0.41868 0.16015,-0.7993 0.18017,-0.83736c0.04004,-0.05709 0.30029,0.05709 0.60058,0.22837c0.50048,0.3045 0.54052,0.34256 0.54052,0.8564c0,0.39965 0.04004,0.5519 0.20019,0.57093c0.14014,0.01903 0.26025,-0.09516 0.36035,-0.38062c0.20019,-0.57093 0.34033,-0.62802 0.64062,-0.26643c0.32031,0.39965 0.74071,0.41868 0.74071,0.03806c0,-0.39965 -0.70068,-0.98961 -1.54149,-1.27508c-1.44139,-0.51384 -1.96189,-1.69376 -1.6616,-3.74911c0.08008,-0.53287 0.1001,-0.5519 0.46044,-0.53287c0.58056,0.05709 0.60058,-0.32353 0.04004,-0.76124c-0.24023,-0.19031 -0.50048,-0.51384 -0.58056,-0.74221c-0.20019,-0.58996 -0.24023,-1.63667 -0.06006,-2.28372c0.36035,-0.89446 0.48046,-0.95155 1.28124,-0.5519l0,0zm0,0" class="st0"/>
 </g>
</svg>