<?xml version="1.0" encoding="utf-8"?>
<!-- Generator: Adobe Illustrator 25.3.1, SVG Export Plug-In . SVG Version: 6.00 Build 0)  -->
<svg version="1.1" id="Capa_1" xmlns="http://www.w3.org/2000/svg" xmlns:xlink="http://www.w3.org/1999/xlink" x="0px" y="0px"
	 viewBox="0 0 90 90" style="enable-background:new 0 0 90 90;" xml:space="preserve">
<style type="text/css">
	.st0{fill:#454545;}
	.st1{fill:#40AE64;}
</style>
<g>
	<path class="st0" d="M76.02,6.05H12.25c-3.79,0-6.9,3.1-6.9,6.9v47.73c0,3.79,3.07,6.86,6.86,6.86h63.77c3.79,0,6.9-3.1,6.9-6.9
		V12.91C82.89,9.14,79.8,6.05,76.02,6.05z M75.96,53.61c0,2.16-1.75,3.91-3.91,3.91H54.19c-1.44,0-2.71,0.93-3.15,2.29
		c-0.31,0.95-1.19,1.59-2.19,1.59h-9.46c-1,0-1.88-0.64-2.19-1.59c-0.44-1.37-1.71-2.29-3.15-2.29H16.2c-2.16,0-3.92-1.77-3.92-3.92
		V16.53c0-2.16,1.75-3.91,3.91-3.91h55.85c2.16,0,3.92,1.77,3.92,3.92V53.61z"/>
	<path class="st0" d="M63.87,78.04h-7.89l-1.56-6.31H33.83l-1.56,6.31h-7.89c-1.53,0-2.77,1.24-2.77,2.77
		c0,1.53,1.24,2.77,2.77,2.77h39.5c1.53,0,2.77-1.24,2.77-2.77C66.64,79.28,65.4,78.04,63.87,78.04z"/>
	<path class="st1" d="M39.11,51.75c-1.19,0-2.33-0.47-3.17-1.31l-7.68-7.68c-1.75-1.75-1.75-4.59,0-6.34c1.75-1.75,4.59-1.75,6.34,0
		l4.34,4.34l19.89-22.1c1.66-1.84,4.49-1.99,6.33-0.33c1.84,1.66,1.99,4.49,0.33,6.33L42.44,50.27c-0.82,0.91-1.98,1.45-3.21,1.48
		C39.19,51.75,39.15,51.75,39.11,51.75z"/>
</g>
</svg>
