<?xml version="1.0" encoding="utf-8"?>
<!-- Generator: Adobe Illustrator 25.3.0, SVG Export Plug-In . SVG Version: 6.00 Build 0)  -->
<svg version="1.1" id="Capa_1" xmlns="http://www.w3.org/2000/svg" xmlns:xlink="http://www.w3.org/1999/xlink" x="0px" y="0px"
	 viewBox="0 0 15 15" style="enable-background:new 0 0 15 15;" xml:space="preserve">
<style type="text/css">
	.st0{fill:#FFFFFF;}
</style>
<path id="Trazado_51" class="st0" d="M11.94,6.01v7.58H0.45V3.94h9.61L8.92,5.09h-7.4v7.35h9.36V7.07L11.94,6.01z M13.96,3.11
	l-1.11-1.12L7.82,7.05l1.11,1.12L13.96,3.11z M7.65,7.67L7.27,8.72l1.05-0.38L7.65,7.67z M14.4,1.58c-0.27-0.28-0.83-0.19-1.34,0.19
	l1.1,1.16C14.56,2.43,14.67,1.86,14.4,1.58L14.4,1.58z M3.82,9.22l-0.46,0.85c-0.04,0.08-0.01,0.17,0.06,0.21c0,0,0,0,0,0
	C3.45,10.3,3.47,10.3,3.5,10.3c0.06,0,0.11-0.03,0.14-0.08L4.1,9.37c0.06-0.13,0.16-0.23,0.27-0.32c0.02,0,0.03,0,0.05,0.01
	c0.08,0,0.16-0.03,0.21-0.09c0.08,0,0.15,0.03,0.21,0.09C4.96,9.19,5.15,9.24,5.33,9.2c0.31-0.13,0.53-0.4,0.59-0.73l0.15-0.5
	C6.11,7.84,6.16,7.72,6.23,7.6C6.27,7.62,6.3,7.62,6.34,7.62c0.02,0,0.04,0,0.05-0.01l0.25,0.53c0.04,0.08,0.13,0.11,0.21,0.07
	c0,0,0,0,0,0c0.08-0.04,0.11-0.13,0.07-0.21L6.65,7.43C6.64,7.41,6.63,7.39,6.62,7.38c0-0.02,0-0.03,0-0.05
	c0-0.16-0.13-0.29-0.29-0.29S6.05,7.17,6.05,7.33c0,0,0,0,0,0C5.92,7.49,5.83,7.68,5.77,7.87l-0.15,0.5
	c-0.1,0.33-0.26,0.48-0.37,0.52C5.17,8.91,5.1,8.88,5.05,8.83c-0.1-0.09-0.23-0.15-0.36-0.17C4.62,8.51,4.45,8.44,4.3,8.5
	C4.2,8.55,4.13,8.66,4.13,8.77c0,0.02,0,0.04,0.01,0.07C4.01,8.95,3.9,9.08,3.82,9.22z"/>
</svg>
